<?xml version="1.0" encoding="UTF-8" standalone="no"?>
<!DOCTYPE svg PUBLIC "-//W3C//DTD SVG 1.1//EN"
 "http://www.w3.org/Graphics/SVG/1.1/DTD/svg11.dtd">
<!-- Generated by graphviz version 5.0.0 (20220707.1540)
 -->
<!-- Title: UmlClassDiagram Pages: 1 -->
<svg width="1153pt" height="1358pt"
 viewBox="0.00 0.00 1152.52 1358.40" xmlns="http://www.w3.org/2000/svg" xmlns:xlink="http://www.w3.org/1999/xlink">
<g id="graph0" class="graph" transform="scale(1 1) rotate(0) translate(4 1354.4)">
<title>UmlClassDiagram</title>
<polygon fill="white" stroke="transparent" points="-4,4 -4,-1354.4 1148.52,-1354.4 1148.52,4 -4,4"/>
<!-- 0 -->
<g id="node1" class="node">
<title>0</title>
<polygon fill="#f2f2f2" stroke="black" points="210.73,-1057.1 210.73,-1349.9 452.23,-1349.9 452.23,-1057.1 210.73,-1057.1"/>
<text text-anchor="middle" x="331.48" y="-1333.3" font-family="Times,serif" font-size="14.00">Device</text>
<text text-anchor="middle" x="331.48" y="-1316.5" font-family="Times,serif" font-size="14.00">contracts/Device.sol</text>
<polyline fill="none" stroke="black" points="210.73,-1308.3 452.23,-1308.3 "/>
<text text-anchor="start" x="218.73" y="-1291.7" font-family="Times,serif" font-size="14.00">Private:</text>
<text text-anchor="start" x="218.73" y="-1274.9" font-family="Times,serif" font-size="14.00"> &#160;&#160;locked: bool</text>
<text text-anchor="start" x="218.73" y="-1258.1" font-family="Times,serif" font-size="14.00">Public:</text>
<text text-anchor="start" x="218.73" y="-1241.3" font-family="Times,serif" font-size="14.00"> &#160;&#160;owner: address</text>
<text text-anchor="start" x="218.73" y="-1224.5" font-family="Times,serif" font-size="14.00"> &#160;&#160;user: address</text>
<polyline fill="none" stroke="black" points="210.73,-1216.3 452.23,-1216.3 "/>
<text text-anchor="start" x="218.73" y="-1199.7" font-family="Times,serif" font-size="14.00">External:</text>
<text text-anchor="start" x="218.73" y="-1182.9" font-family="Times,serif" font-size="14.00"> &#160;&#160;&#160;lock()</text>
<text text-anchor="start" x="218.73" y="-1166.1" font-family="Times,serif" font-size="14.00"> &#160;&#160;&#160;unlock()</text>
<text text-anchor="start" x="218.73" y="-1149.3" font-family="Times,serif" font-size="14.00"> &#160;&#160;&#160;islocked(): bool</text>
<text text-anchor="start" x="218.73" y="-1132.5" font-family="Times,serif" font-size="14.00"> &#160;&#160;&#160;assignUser(_user: address)</text>
<text text-anchor="start" x="218.73" y="-1115.7" font-family="Times,serif" font-size="14.00"> &#160;&#160;&#160;removeUser()</text>
<text text-anchor="start" x="218.73" y="-1098.9" font-family="Times,serif" font-size="14.00"> &#160;&#160;&#160;isUserOfDevice(_user: address): bool</text>
<text text-anchor="start" x="218.73" y="-1082.1" font-family="Times,serif" font-size="14.00">Public:</text>
<text text-anchor="start" x="218.73" y="-1065.3" font-family="Times,serif" font-size="14.00"> &#160;&#160;&#160;constructor()</text>
</g>
<!-- 1 -->
<g id="node2" class="node">
<title>1</title>
<polygon fill="#f2f2f2" stroke="black" points="987.2,-50.5 987.2,-108.9 1121.76,-108.9 1121.76,-50.5 987.2,-50.5"/>
<text text-anchor="middle" x="1054.48" y="-92.3" font-family="Times,serif" font-size="14.00">&lt;&lt;Interface&gt;&gt;</text>
<text text-anchor="middle" x="1054.48" y="-75.5" font-family="Times,serif" font-size="14.00">IDevice</text>
<text text-anchor="middle" x="1054.48" y="-58.7" font-family="Times,serif" font-size="14.00">contracts/IDevice.sol</text>
</g>
<!-- 2 -->
<g id="node3" class="node">
<title>2</title>
<polygon fill="#f2f2f2" stroke="black" points="80.3,-764.9 80.3,-932.1 512.66,-932.1 512.66,-764.9 80.3,-764.9"/>
<text text-anchor="middle" x="296.48" y="-915.5" font-family="Times,serif" font-size="14.00">&lt;&lt;Interface&gt;&gt;</text>
<text text-anchor="middle" x="296.48" y="-898.7" font-family="Times,serif" font-size="14.00">IOrganisation</text>
<text text-anchor="middle" x="296.48" y="-881.9" font-family="Times,serif" font-size="14.00">contracts/IOrganisation.sol</text>
<polyline fill="none" stroke="black" points="80.3,-873.7 512.66,-873.7 "/>
<text text-anchor="start" x="88.3" y="-857.1" font-family="Times,serif" font-size="14.00">External:</text>
<text text-anchor="start" x="88.3" y="-840.3" font-family="Times,serif" font-size="14.00"> &#160;&#160;&#160;&#160;registerDevice(): address</text>
<text text-anchor="start" x="88.3" y="-823.5" font-family="Times,serif" font-size="14.00"> &#160;&#160;&#160;&#160;lockDevice(device: address)</text>
<text text-anchor="start" x="88.3" y="-806.7" font-family="Times,serif" font-size="14.00"> &#160;&#160;&#160;&#160;unlockDevice(device: address)</text>
<text text-anchor="start" x="88.3" y="-789.9" font-family="Times,serif" font-size="14.00"> &#160;&#160;&#160;&#160;associateUserToDevice(deviceAddress: address, userAddress: address)</text>
<text text-anchor="start" x="88.3" y="-773.1" font-family="Times,serif" font-size="14.00"> &#160;&#160;&#160;&#160;registerService(rate: uint)</text>
</g>
<!-- 4 -->
<g id="node4" class="node">
<title>4</title>
<polygon fill="#f2f2f2" stroke="black" points="215.19,-21.3 215.19,-138.1 377.77,-138.1 377.77,-21.3 215.19,-21.3"/>
<text text-anchor="middle" x="296.48" y="-121.5" font-family="Times,serif" font-size="14.00">&lt;&lt;Struct&gt;&gt;</text>
<text text-anchor="middle" x="296.48" y="-104.7" font-family="Times,serif" font-size="14.00">OwnedDevices</text>
<text text-anchor="middle" x="296.48" y="-87.9" font-family="Times,serif" font-size="14.00">contracts/Organisation.sol</text>
<polyline fill="none" stroke="black" points="215.19,-79.7 377.77,-79.7 "/>
<text text-anchor="start" x="223.19" y="-63.1" font-family="Times,serif" font-size="14.00">deviceAddress: address</text>
<text text-anchor="start" x="223.19" y="-46.3" font-family="Times,serif" font-size="14.00">userAddress: address</text>
<text text-anchor="start" x="223.19" y="-29.5" font-family="Times,serif" font-size="14.00">isLocked: bool</text>
</g>
<!-- 3 -->
<g id="node5" class="node">
<title>3</title>
<polygon fill="#f2f2f2" stroke="black" points="0,-195.9 0,-639.9 592.96,-639.9 592.96,-195.9 0,-195.9"/>
<text text-anchor="middle" x="296.48" y="-623.3" font-family="Times,serif" font-size="14.00">Organisation</text>
<text text-anchor="middle" x="296.48" y="-606.5" font-family="Times,serif" font-size="14.00">contracts/Organisation.sol</text>
<polyline fill="none" stroke="black" points="0,-598.3 592.96,-598.3 "/>
<text text-anchor="start" x="8" y="-581.7" font-family="Times,serif" font-size="14.00">Public:</text>
<text text-anchor="start" x="8" y="-564.9" font-family="Times,serif" font-size="14.00"> &#160;&#160;identifier: string</text>
<text text-anchor="start" x="8" y="-548.1" font-family="Times,serif" font-size="14.00"> &#160;&#160;organisationName: string</text>
<text text-anchor="start" x="8" y="-531.3" font-family="Times,serif" font-size="14.00"> &#160;&#160;alternativeIds: string[]</text>
<text text-anchor="start" x="8" y="-514.5" font-family="Times,serif" font-size="14.00"> &#160;&#160;owner: address</text>
<text text-anchor="start" x="8" y="-497.7" font-family="Times,serif" font-size="14.00"> &#160;&#160;devices: Device[]</text>
<text text-anchor="start" x="8" y="-480.9" font-family="Times,serif" font-size="14.00"> &#160;&#160;services: ParkingService[]</text>
<polyline fill="none" stroke="black" points="0,-472.7 592.96,-472.7 "/>
<text text-anchor="start" x="8" y="-456.1" font-family="Times,serif" font-size="14.00">External:</text>
<text text-anchor="start" x="8" y="-439.3" font-family="Times,serif" font-size="14.00"> &#160;&#160;&#160;registerDevice(): address &lt;&lt;onlyOwner&gt;&gt;</text>
<text text-anchor="start" x="8" y="-422.5" font-family="Times,serif" font-size="14.00"> &#160;&#160;&#160;lockDevice(device: address)</text>
<text text-anchor="start" x="8" y="-405.7" font-family="Times,serif" font-size="14.00"> &#160;&#160;&#160;unlockDevice(device: address)</text>
<text text-anchor="start" x="8" y="-388.9" font-family="Times,serif" font-size="14.00"> &#160;&#160;&#160;associateUserToDevice(deviceAddress: address, userAddress: address)</text>
<text text-anchor="start" x="8" y="-372.1" font-family="Times,serif" font-size="14.00"> &#160;&#160;&#160;removeUserAssociation(deviceAddress: address)</text>
<text text-anchor="start" x="8" y="-355.3" font-family="Times,serif" font-size="14.00"> &#160;&#160;&#160;registerService(rate: uint)</text>
<text text-anchor="start" x="8" y="-338.5" font-family="Times,serif" font-size="14.00">Public:</text>
<text text-anchor="start" x="8" y="-321.7" font-family="Times,serif" font-size="14.00"> &#160;&#160;&#160;&lt;&lt;event&gt;&gt; DeviceCreated(organisationAddress: address, deviceAddress: address)</text>
<text text-anchor="start" x="8" y="-304.9" font-family="Times,serif" font-size="14.00"> &#160;&#160;&#160;&lt;&lt;event&gt;&gt; DeviceRemoved(organisationAddress: address, deviceAddress: address)</text>
<text text-anchor="start" x="8" y="-288.1" font-family="Times,serif" font-size="14.00"> &#160;&#160;&#160;&lt;&lt;event&gt;&gt; ServiceRegistered(organisationAddress: address, serviceAddress: address)</text>
<text text-anchor="start" x="8" y="-271.3" font-family="Times,serif" font-size="14.00"> &#160;&#160;&#160;&lt;&lt;modifier&gt;&gt; onlyOwner()</text>
<text text-anchor="start" x="8" y="-254.5" font-family="Times,serif" font-size="14.00"> &#160;&#160;&#160;constructor(_identifier: string, _organisationName: string, _alternativeIds: string[], _owner: address)</text>
<text text-anchor="start" x="8" y="-237.7" font-family="Times,serif" font-size="14.00"> &#160;&#160;&#160;getDevices(): Device[]</text>
<text text-anchor="start" x="8" y="-220.9" font-family="Times,serif" font-size="14.00"> &#160;&#160;&#160;viewOwner(): address</text>
<text text-anchor="start" x="8" y="-204.1" font-family="Times,serif" font-size="14.00"> &#160;&#160;&#160;getServices(): ParkingService[]</text>
</g>
<!-- 4&#45;&gt;3 -->
<g id="edge1" class="edge">
<title>4&#45;&gt;3</title>
<path fill="none" stroke="black" d="M296.48,-138.11C296.48,-151.77 296.48,-167.18 296.48,-183.58"/>
<polygon fill="black" stroke="black" points="296.48,-183.67 300.48,-189.67 296.48,-195.67 292.48,-189.67 296.48,-183.67"/>
</g>
<!-- 3&#45;&gt;0 -->
<g id="edge3" class="edge">
<title>3&#45;&gt;0</title>
<path fill="none" stroke="black" d="M87.89,-639.97C81.66,-651.87 76.12,-664.03 71.48,-676.4 17.72,-819.62 0.82,-884.92 71.48,-1020.6 99.5,-1074.41 151.53,-1115.58 201.73,-1145.04"/>
<polygon fill="black" stroke="black" points="200,-1148.08 210.42,-1150.03 203.49,-1142.01 200,-1148.08"/>
</g>
<!-- 3&#45;&gt;2 -->
<g id="edge2" class="edge">
<title>3&#45;&gt;2</title>
<path fill="none" stroke="black" stroke-dasharray="5,2" d="M296.48,-640.11C296.48,-672.72 296.48,-705.13 296.48,-734.29"/>
<polygon fill="none" stroke="black" points="285.98,-734.53 296.48,-764.53 306.98,-734.53 285.98,-734.53"/>
</g>
<!-- 6 -->
<g id="node8" class="node">
<title>6</title>
<polygon fill="#f2f2f2" stroke="black" points="530.44,-676.9 530.44,-1020.1 1144.52,-1020.1 1144.52,-676.9 530.44,-676.9"/>
<text text-anchor="middle" x="837.48" y="-1003.5" font-family="Times,serif" font-size="14.00">ParkingService</text>
<text text-anchor="middle" x="837.48" y="-986.7" font-family="Times,serif" font-size="14.00">contracts/ParkingService.sol</text>
<polyline fill="none" stroke="black" points="530.44,-978.5 1144.52,-978.5 "/>
<text text-anchor="start" x="538.44" y="-961.9" font-family="Times,serif" font-size="14.00">Public:</text>
<text text-anchor="start" x="538.44" y="-945.1" font-family="Times,serif" font-size="14.00"> &#160;&#160;owner: address</text>
<text text-anchor="start" x="538.44" y="-928.3" font-family="Times,serif" font-size="14.00"> &#160;&#160;rate: uint</text>
<text text-anchor="start" x="538.44" y="-911.5" font-family="Times,serif" font-size="14.00"> &#160;&#160;isArmDevice: mapping(address=&gt;bool)</text>
<text text-anchor="start" x="538.44" y="-894.7" font-family="Times,serif" font-size="14.00"> &#160;&#160;organisationsThatCanUseService: mapping(address=&gt;bool)</text>
<text text-anchor="start" x="538.44" y="-877.9" font-family="Times,serif" font-size="14.00"> &#160;&#160;identifierToSession: mapping(bytes32=&gt;ParkingSession)</text>
<polyline fill="none" stroke="black" points="530.44,-869.7 1144.52,-869.7 "/>
<text text-anchor="start" x="538.44" y="-853.1" font-family="Times,serif" font-size="14.00">External:</text>
<text text-anchor="start" x="538.44" y="-836.3" font-family="Times,serif" font-size="14.00"> &#160;&#160;&#160;&lt;&lt;payable&gt;&gt; closeSessionUser(sessionID: bytes32)</text>
<text text-anchor="start" x="538.44" y="-819.5" font-family="Times,serif" font-size="14.00"> &#160;&#160;&#160;&lt;&lt;payable&gt;&gt; closeSessionDevice(sessionID: bytes32)</text>
<text text-anchor="start" x="538.44" y="-802.7" font-family="Times,serif" font-size="14.00"> &#160;&#160;&#160;allowDeviceToUseService(armDeviceAddress: address)</text>
<text text-anchor="start" x="538.44" y="-785.9" font-family="Times,serif" font-size="14.00"> &#160;&#160;&#160;allowOrganisationToUseService(organisationAddress: address)</text>
<text text-anchor="start" x="538.44" y="-769.1" font-family="Times,serif" font-size="14.00"> &#160;&#160;&#160;openSession(armBarrier: address, carAddress: address)</text>
<text text-anchor="start" x="538.44" y="-752.3" font-family="Times,serif" font-size="14.00"> &#160;&#160;&#160;getSession(sessionId: bytes32): ParkingSession</text>
<text text-anchor="start" x="538.44" y="-735.5" font-family="Times,serif" font-size="14.00">Public:</text>
<text text-anchor="start" x="538.44" y="-718.7" font-family="Times,serif" font-size="14.00"> &#160;&#160;&#160;&lt;&lt;event&gt;&gt; OpenSession(user: address, armBarrier: address, blockNumber: uint, sesssionHash: bytes32)</text>
<text text-anchor="start" x="538.44" y="-701.9" font-family="Times,serif" font-size="14.00"> &#160;&#160;&#160;&lt;&lt;event&gt;&gt; CloseSession(user: address, armBarrier: address, blockNumber: uint)</text>
<text text-anchor="start" x="538.44" y="-685.1" font-family="Times,serif" font-size="14.00"> &#160;&#160;&#160;constructor(_rate: uint)</text>
</g>
<!-- 3&#45;&gt;6 -->
<g id="edge4" class="edge">
<title>3&#45;&gt;6</title>
<path fill="none" stroke="black" d="M575.7,-640.11C588.53,-650.28 601.34,-660.43 614.01,-670.46"/>
<polygon fill="black" stroke="black" points="611.87,-673.23 621.88,-676.7 616.22,-667.74 611.87,-673.23"/>
</g>
<!-- 5 -->
<g id="node6" class="node">
<title>5</title>
<polygon fill="#f2f2f2" stroke="black" points="395.35,-0.5 395.35,-158.9 969.61,-158.9 969.61,-0.5 395.35,-0.5"/>
<text text-anchor="middle" x="682.48" y="-142.3" font-family="Times,serif" font-size="14.00">OrganisationFactory</text>
<text text-anchor="middle" x="682.48" y="-125.5" font-family="Times,serif" font-size="14.00">contracts/OrganisationFactory.sol</text>
<polyline fill="none" stroke="black" points="395.35,-117.3 969.61,-117.3 "/>
<text text-anchor="start" x="403.35" y="-100.7" font-family="Times,serif" font-size="14.00">Public:</text>
<text text-anchor="start" x="403.35" y="-83.9" font-family="Times,serif" font-size="14.00"> &#160;&#160;_organisations: Organisation[]</text>
<polyline fill="none" stroke="black" points="395.35,-75.7 969.61,-75.7 "/>
<text text-anchor="start" x="403.35" y="-59.1" font-family="Times,serif" font-size="14.00">Public:</text>
<text text-anchor="start" x="403.35" y="-42.3" font-family="Times,serif" font-size="14.00"> &#160;&#160;&#160;&lt;&lt;event&gt;&gt; OrganisationCreated(organisationAddress: address)</text>
<text text-anchor="start" x="403.35" y="-25.5" font-family="Times,serif" font-size="14.00"> &#160;&#160;&#160;createNewOrganisation(identifier: string, customerName: string, alternativeIds: string[]): address</text>
<text text-anchor="start" x="403.35" y="-8.7" font-family="Times,serif" font-size="14.00"> &#160;&#160;&#160;getOrganisations(): Organisation[]</text>
</g>
<!-- 5&#45;&gt;3 -->
<g id="edge5" class="edge">
<title>5&#45;&gt;3</title>
<path fill="none" stroke="black" d="M592.47,-159.1C581.59,-168.57 570.1,-178.58 558.21,-188.93"/>
<polygon fill="black" stroke="black" points="555.59,-186.58 550.34,-195.79 560.18,-191.86 555.59,-186.58"/>
</g>
<!-- 7 -->
<g id="node7" class="node">
<title>7</title>
<polygon fill="#f2f2f2" stroke="black" points="749.58,-1119.9 749.58,-1287.1 925.38,-1287.1 925.38,-1119.9 749.58,-1119.9"/>
<text text-anchor="middle" x="837.48" y="-1270.5" font-family="Times,serif" font-size="14.00">&lt;&lt;Struct&gt;&gt;</text>
<text text-anchor="middle" x="837.48" y="-1253.7" font-family="Times,serif" font-size="14.00">ParkingSession</text>
<text text-anchor="middle" x="837.48" y="-1236.9" font-family="Times,serif" font-size="14.00">contracts/ParkingService.sol</text>
<polyline fill="none" stroke="black" points="749.58,-1228.7 925.38,-1228.7 "/>
<text text-anchor="start" x="757.58" y="-1212.1" font-family="Times,serif" font-size="14.00">rate: uint</text>
<text text-anchor="start" x="757.58" y="-1195.3" font-family="Times,serif" font-size="14.00">startedAtBlock: uint</text>
<text text-anchor="start" x="757.58" y="-1178.5" font-family="Times,serif" font-size="14.00">user: address</text>
<text text-anchor="start" x="757.58" y="-1161.7" font-family="Times,serif" font-size="14.00">car: address</text>
<text text-anchor="start" x="757.58" y="-1144.9" font-family="Times,serif" font-size="14.00">organisation: address</text>
<text text-anchor="start" x="757.58" y="-1128.1" font-family="Times,serif" font-size="14.00">armDevice: address</text>
</g>
<!-- 7&#45;&gt;6 -->
<g id="edge6" class="edge">
<title>7&#45;&gt;6</title>
<path fill="none" stroke="black" d="M843.3,-1119.84C843.88,-1093.45 844.19,-1063.11 844.23,-1032.5"/>
<polygon fill="black" stroke="black" points="844.23,-1032.31 840.23,-1026.31 844.23,-1020.31 848.23,-1026.31 844.23,-1032.31"/>
</g>
<!-- 6&#45;&gt;0 -->
<g id="edge8" class="edge">
<title>6&#45;&gt;0</title>
<path fill="none" stroke="black" stroke-dasharray="5,2" d="M592.63,-1020.31C546.97,-1052.17 500.94,-1084.28 460.53,-1112.47"/>
<polygon fill="black" stroke="black" points="458.46,-1109.65 452.26,-1118.24 462.46,-1115.39 458.46,-1109.65"/>
</g>
<!-- 6&#45;&gt;7 -->
<g id="edge7" class="edge">
<title>6&#45;&gt;7</title>
<path fill="none" stroke="black" d="M830.73,-1020.31C830.7,-1051.05 830.94,-1082.03 831.45,-1109.49"/>
<polygon fill="black" stroke="black" points="827.96,-1109.91 831.66,-1119.84 834.96,-1109.77 827.96,-1109.91"/>
</g>
</g>
</svg>
